<svg width="79" height="82" viewBox="0 0 79 82" fill="none" xmlns="http://www.w3.org/2000/svg">
<g filter="url(#filter0_d_2_340)">
<rect x="5" y="5" width="69" height="72" rx="14" fill="#0386D0" shape-rendering="crispEdges"/>
<g clip-path="url(#clip0_2_340)">
<path d="M58.587 24.438C58.1722 24.438 57.7597 24.286 57.4297 23.9725C52.372 19.194 45.882 16.5625 39.1536 16.5625C32.4253 16.5625 25.9353 19.194 20.8776 23.9749C20.1741 24.6375 19.0878 24.5829 18.4484 23.8585C17.8091 23.1318 17.8595 22.0036 18.5607 21.341C24.2555 15.9616 31.5682 13 39.1536 13C46.7391 13 54.0518 15.9616 59.7466 21.341C60.4478 22.0036 60.4982 23.1294 59.8589 23.8585C59.5197 24.2432 59.0545 24.438 58.587 24.438Z" fill="white"/>
<path d="M61.8437 36.078C61.2914 36.078 60.746 35.8025 60.416 35.2895C55.6448 27.927 47.8256 23.5308 39.5 23.5308C31.1743 23.5308 23.3552 27.927 18.5839 35.2895C18.0545 36.1088 16.9843 36.3273 16.1983 35.7763C15.41 35.2277 15.1991 34.121 15.7285 33.304C21.1391 24.9558 30.0262 19.9707 39.5 19.9707C48.9737 19.9707 57.8608 24.9558 63.2714 33.3063C63.8008 34.1233 63.5923 35.2301 62.8016 35.7787C62.5083 35.9806 62.176 36.078 61.8437 36.078Z" fill="white"/>
<path d="M34.071 70C33.6287 70 33.1864 69.8243 32.8495 69.4728C32.4737 69.0809 23.6668 59.7638 23.6668 50.7934C23.6668 41.4834 30.7687 33.9095 39.4999 33.9095C48.2312 33.9095 55.3331 41.4834 55.3331 50.7934C55.3331 51.7767 54.5631 52.5747 53.6143 52.5747C52.6656 52.5747 51.8956 51.7767 51.8956 50.7934C51.8956 43.4475 46.336 37.472 39.4999 37.472C32.6639 37.472 27.1043 43.4475 27.1043 50.7934C27.1043 58.315 35.2099 66.8793 35.2924 66.9648C35.9616 67.663 35.957 68.7912 35.281 69.4847C34.9464 69.829 34.5087 70 34.071 70Z" fill="white"/>
<path d="M44.929 70C40.7948 70 31.2111 61.849 30.283 52.7717C29.9552 49.5631 30.9407 46.2808 32.9161 43.9913C34.6348 42.0011 36.9563 40.8967 39.4519 40.8825H39.5C41.9338 40.8825 44.2346 41.8728 45.9855 43.6755C47.8142 45.5588 48.8202 48.0882 48.8202 50.7957V51.9571C48.8202 54.819 50.9698 57.1465 53.6144 57.1465C56.259 57.1465 58.4109 54.819 58.4109 51.9571V51.551C58.4109 40.4597 50.6582 31.2328 40.7605 30.5488C35.5996 30.1855 30.6496 32.0332 26.8294 35.7335C22.8648 39.5762 20.5915 45.0672 20.5915 50.7957C20.5915 55.5077 22.1315 60.0986 24.9273 63.7228C25.5186 64.4923 25.3994 65.611 24.6569 66.2261C23.9167 66.8412 22.835 66.7153 22.2392 65.9458C18.9598 61.6922 17.1517 56.3105 17.1517 50.7933C17.1517 44.0816 19.8238 37.643 24.4782 33.1305C28.9996 28.7462 34.8617 26.566 40.985 26.9911C52.6817 27.801 61.8461 38.5882 61.8461 51.5486V51.9547C61.8461 56.7807 58.1519 60.7066 53.6121 60.7066C49.0723 60.7066 45.3805 56.7807 45.3805 51.9547V50.7933C45.3805 49.0406 44.7342 47.4113 43.5609 46.2001C42.4609 45.0648 41.0194 44.4426 39.5 44.4426C39.4886 44.4426 39.4794 44.4426 39.468 44.4426C37.5315 44.4521 36.2275 45.4947 35.4759 46.3663C34.1352 47.9172 33.4707 50.1735 33.6975 52.3965C34.4561 59.8017 42.6671 66.4398 44.9267 66.4398C45.8755 66.4398 46.6455 67.2378 46.6455 68.2211C46.6455 69.2043 45.8777 70 44.929 70Z" fill="white"/>
<path d="M51.3066 66.516C45.1558 66.516 37.646 58.726 37.646 49.6321C37.646 48.6488 38.416 47.8508 39.3647 47.8508C40.3135 47.8508 41.0835 48.6488 41.0835 49.6321C41.0835 56.6811 46.8012 62.9535 51.3066 62.9535C52.2554 62.9535 53.0254 63.7515 53.0254 64.7347C53.0254 65.718 52.2554 66.516 51.3066 66.516Z" fill="white"/>
</g>
<rect x="5.5" y="5.5" width="68" height="71" rx="13.5" stroke="white" shape-rendering="crispEdges"/>
</g>
<defs>
<filter id="filter0_d_2_340" x="0" y="0" width="79" height="82" filterUnits="userSpaceOnUse" color-interpolation-filters="sRGB">
<feFlood flood-opacity="0" result="BackgroundImageFix"/>
<feColorMatrix in="SourceAlpha" type="matrix" values="0 0 0 0 0 0 0 0 0 0 0 0 0 0 0 0 0 0 127 0" result="hardAlpha"/>
<feOffset/>
<feGaussianBlur stdDeviation="2.5"/>
<feComposite in2="hardAlpha" operator="out"/>
<feColorMatrix type="matrix" values="0 0 0 0 1 0 0 0 0 1 0 0 0 0 1 0 0 0 0.5 0"/>
<feBlend mode="normal" in2="BackgroundImageFix" result="effect1_dropShadow_2_340"/>
<feBlend mode="normal" in="SourceGraphic" in2="effect1_dropShadow_2_340" result="shape"/>
</filter>
<clipPath id="clip0_2_340">
<rect width="55" height="57" fill="white" transform="translate(12 13)"/>
</clipPath>
</defs>
</svg>
