<svg width="50" height="50" viewBox="0 0 50 50" fill="none" xmlns="http://www.w3.org/2000/svg">
<g clip-path="url(#clip0_2_324)">
<path d="M29.7852 25C29.7852 27.6428 27.6429 29.7852 25 29.7852C22.3572 29.7852 20.2149 27.6428 20.2149 25C20.2149 22.3572 22.3572 20.2148 25 20.2148C27.6429 20.2148 29.7852 22.3572 29.7852 25Z" fill="#3B5998"/>
<path d="M36.1907 16.5337C35.9607 15.9104 35.5937 15.3462 35.1169 14.8831C34.6538 14.4062 34.09 14.0393 33.4663 13.8092C32.9604 13.6128 32.2006 13.379 30.8009 13.3152C29.2869 13.2462 28.8329 13.2313 24.9999 13.2313C21.1665 13.2313 20.7126 13.2458 19.1989 13.3149C17.7993 13.379 17.039 13.6128 16.5336 13.8092C15.9099 14.0393 15.3457 14.4062 14.883 14.8831C14.4061 15.3462 14.0392 15.91 13.8088 16.5337C13.6123 17.0395 13.3785 17.7998 13.3148 19.1994C13.2457 20.7131 13.2308 21.167 13.2308 25.0004C13.2308 28.8334 13.2457 29.2874 13.3148 30.8014C13.3785 32.201 13.6123 32.9609 13.8088 33.4668C14.0392 34.0905 14.4058 34.6543 14.8826 35.1174C15.3457 35.5942 15.9095 35.9612 16.5332 36.1912C17.039 36.3881 17.7993 36.6219 19.1989 36.6856C20.7126 36.7547 21.1662 36.7691 24.9996 36.7691C28.8333 36.7691 29.2873 36.7547 30.8006 36.6856C32.2002 36.6219 32.9604 36.3881 33.4663 36.1912C34.7183 35.7083 35.7078 34.7188 36.1907 33.4668C36.3872 32.9609 36.621 32.201 36.6851 30.8014C36.7542 29.2874 36.7687 28.8334 36.7687 25.0004C36.7687 21.167 36.7542 20.7131 36.6851 19.1994C36.6214 17.7998 36.3876 17.0395 36.1907 16.5337ZM24.9999 32.3716C20.9285 32.3716 17.628 29.0715 17.628 25C17.628 20.9286 20.9285 17.6285 24.9999 17.6285C29.071 17.6285 32.3715 20.9286 32.3715 25C32.3715 29.0715 29.071 32.3716 24.9999 32.3716ZM32.6629 19.0598C31.7115 19.0598 30.9402 18.2885 30.9402 17.3371C30.9402 16.3857 31.7115 15.6144 32.6629 15.6144C33.6143 15.6144 34.3856 16.3857 34.3856 17.3371C34.3852 18.2885 33.6143 19.0598 32.6629 19.0598Z" fill="#3B5998"/>
<path d="M25 0C11.195 0 0 11.195 0 25C0 38.805 11.195 50 25 50C38.805 50 50 38.805 50 25C50 11.195 38.805 0 25 0ZM39.2689 30.9185C39.1994 32.4467 38.9565 33.49 38.6017 34.4032C37.8559 36.3316 36.3316 37.8559 34.4032 38.6017C33.4904 38.9565 32.4467 39.1991 30.9189 39.2689C29.388 39.3387 28.899 39.3555 25.0004 39.3555C21.1014 39.3555 20.6127 39.3387 19.0815 39.2689C17.5537 39.1991 16.51 38.9565 15.5972 38.6017C14.6389 38.2412 13.7714 37.6762 13.0543 36.9457C12.3241 36.2289 11.7592 35.3611 11.3987 34.4032C11.0439 33.4904 10.8009 32.4467 10.7315 30.9189C10.6609 29.3877 10.6445 28.8986 10.6445 25C10.6445 21.1014 10.6609 20.6123 10.7311 19.0815C10.8006 17.5533 11.0432 16.51 11.3979 15.5968C11.7584 14.6389 12.3238 13.7711 13.0543 13.0543C13.7711 12.3238 14.6389 11.7588 15.5968 11.3983C16.51 11.0435 17.5533 10.8009 19.0815 10.7311C20.6123 10.6613 21.1014 10.6445 25 10.6445C28.8986 10.6445 29.3877 10.6613 30.9185 10.7315C32.4467 10.8009 33.49 11.0435 34.4032 11.3979C35.3611 11.7584 36.2289 12.3238 36.9461 13.0543C37.6762 13.7714 38.2416 14.6389 38.6017 15.5968C38.9568 16.51 39.1994 17.5533 39.2693 19.0815C39.3391 20.6123 39.3555 21.1014 39.3555 25C39.3555 28.8986 39.3391 29.3877 39.2689 30.9185Z" fill="#3B5998"/>
</g>
<defs>
<clipPath id="clip0_2_324">
<rect width="50" height="50" fill="white"/>
</clipPath>
</defs>
</svg>
