<svg width="50" height="50" viewBox="0 0 50 50" fill="none" xmlns="http://www.w3.org/2000/svg">
<g clip-path="url(#clip0_2_333)">
<path d="M25 49.9987C38.8071 49.9987 50 38.8058 50 24.9987C50 11.1915 38.8071 -0.00134277 25 -0.00134277C11.1929 -0.00134277 0 11.1915 0 24.9987C0 38.8058 11.1929 49.9987 25 49.9987Z" fill="#007AB9"/>
<path d="M39.9372 27.0111V37.3181H33.9615V27.7019C33.9615 25.2873 33.0987 23.6384 30.9351 23.6384C29.2839 23.6384 28.3031 24.7485 27.8699 25.8234C27.7126 26.2076 27.672 26.741 27.672 27.2798V37.3176H21.6959C21.6959 37.3176 21.7761 21.0309 21.6959 19.3451H27.6725V21.8919C27.6604 21.912 27.6435 21.9316 27.6328 21.9508H27.6725V21.8919C28.4666 20.67 29.8829 18.923 33.0581 18.923C36.9897 18.923 39.9372 21.4917 39.9372 27.0111ZM15.4443 10.6816C13.4001 10.6816 12.0627 12.0235 12.0627 13.7865C12.0627 15.512 13.3614 16.8926 15.3659 16.8926H15.4047C17.489 16.8926 18.7849 15.512 18.7849 13.7865C18.7452 12.0235 17.489 10.6816 15.4443 10.6816ZM12.4179 37.3181H18.3918V19.3451H12.4179V37.3181Z" fill="#F1F2F2"/>
</g>
<defs>
<clipPath id="clip0_2_333">
<rect width="50" height="50" fill="white"/>
</clipPath>
</defs>
</svg>
