<svg width="25" height="25" viewBox="0 0 25 25" fill="none" xmlns="http://www.w3.org/2000/svg">
<path d="M20.3125 7.8125H17.1875V5.46875C17.1875 4.22555 16.6936 3.03326 15.8146 2.15419C14.9355 1.27511 13.7432 0.78125 12.5 0.78125C11.2568 0.78125 10.0645 1.27511 9.18544 2.15419C8.30636 3.03326 7.8125 4.22555 7.8125 5.46875V7.8125H4.6875C4.2731 7.8125 3.87567 7.97712 3.58265 8.27015C3.28962 8.56317 3.125 8.9606 3.125 9.375V20.3125C3.125 20.7269 3.28962 21.1243 3.58265 21.4174C3.87567 21.7104 4.2731 21.875 4.6875 21.875H20.3125C20.7269 21.875 21.1243 21.7104 21.4174 21.4174C21.7104 21.1243 21.875 20.7269 21.875 20.3125V9.375C21.875 8.9606 21.7104 8.56317 21.4174 8.27015C21.1243 7.97712 20.7269 7.8125 20.3125 7.8125ZM13.2812 15.4912V17.9688C13.2812 18.176 13.1989 18.3747 13.0524 18.5212C12.9059 18.6677 12.7072 18.75 12.5 18.75C12.2928 18.75 12.0941 18.6677 11.9476 18.5212C11.8011 18.3747 11.7188 18.176 11.7188 17.9688V15.4912C11.1975 15.3069 10.7582 14.9443 10.4784 14.4674C10.1987 13.9905 10.0965 13.4301 10.19 12.8852C10.2835 12.3403 10.5666 11.8459 10.9893 11.4896C11.412 11.1332 11.9471 10.9378 12.5 10.9378C13.0529 10.9378 13.588 11.1332 14.0107 11.4896C14.4334 11.8459 14.7165 12.3403 14.81 12.8852C14.9035 13.4301 14.8013 13.9905 14.5216 14.4674C14.2418 14.9443 13.8025 15.3069 13.2812 15.4912ZM15.625 7.8125H9.375V5.46875C9.375 4.63995 9.70424 3.84509 10.2903 3.25904C10.8763 2.67299 11.6712 2.34375 12.5 2.34375C13.3288 2.34375 14.1237 2.67299 14.7097 3.25904C15.2958 3.84509 15.625 4.63995 15.625 5.46875V7.8125Z" fill="#C8D4FF"/>
</svg>
