<svg width="25" height="24" viewBox="0 0 25 24" fill="none" xmlns="http://www.w3.org/2000/svg">
<path d="M11.3571 15.4286L14.7857 12M14.7857 12L11.3571 8.57141M14.7857 12H4.5" stroke="white" stroke-linecap="round" stroke-linejoin="round"/>
<path d="M5.64285 9.71424V6.27653C5.64285 5.6719 5.88241 5.0919 6.30909 4.66351C6.73577 4.23511 7.3148 3.99323 7.91942 3.99081L17.0074 3.95424C17.3077 3.95304 17.6052 4.01101 17.8831 4.12484C18.1609 4.23867 18.4136 4.40612 18.6268 4.61765C18.8399 4.82917 19.0092 5.0806 19.1251 5.35759C19.241 5.63458 19.3012 5.93169 19.3023 6.23196L19.348 17.6937C19.3492 17.9938 19.2913 18.2913 19.1775 18.5691C19.0638 18.8468 18.8964 19.0995 18.685 19.3126C18.4736 19.5257 18.2223 19.6951 17.9454 19.811C17.6686 19.927 17.3716 19.9873 17.0714 19.9885H7.92857C7.32236 19.9885 6.74098 19.7477 6.31232 19.3191C5.88367 18.8904 5.64285 18.309 5.64285 17.7028V14.2857" stroke="white" stroke-linecap="round" stroke-linejoin="round"/>
</svg>
