<svg width="50" height="50" viewBox="0 0 50 50" fill="none" xmlns="http://www.w3.org/2000/svg">
<g clip-path="url(#clip0_2_328)">
<path d="M25 50.0003C38.8069 50.0003 49.9996 38.8077 49.9996 25.0008C49.9996 11.1939 38.8069 0.0012207 25 0.0012207C11.1932 0.0012207 0.000488281 11.1939 0.000488281 25.0008C0.000488281 38.8077 11.1932 50.0003 25 50.0003Z" fill="#CB2027"/>
<path d="M27.0179 33.4774C25.1279 33.3312 24.3338 32.394 22.8516 31.4943C22.037 35.7684 21.0414 39.8656 18.0926 42.006C17.1813 35.546 19.4286 30.6939 20.4723 25.5436C18.6933 22.5489 20.6862 16.5212 24.4385 18.0065C29.0567 19.8327 20.4402 29.1417 26.2247 30.3044C32.2635 31.5183 34.7288 19.8261 30.9837 16.023C25.5727 10.5322 15.2334 15.8982 16.5048 23.7584C16.8145 25.68 18.8003 26.2633 17.298 28.9149C13.835 28.148 12.802 25.4166 12.9348 21.7753C13.1491 15.8148 18.2905 11.6414 23.4474 11.0639C29.9694 10.3339 36.0907 13.4587 36.9356 19.5934C37.8862 26.5174 33.9913 34.0157 27.0179 33.4774Z" fill="#F1F2F2"/>
</g>
<defs>
<clipPath id="clip0_2_328">
<rect width="50" height="50" fill="white"/>
</clipPath>
</defs>
</svg>
